<svg width="48" height="48" viewBox="0 0 48 48" fill="none" xmlns="http://www.w3.org/2000/svg">
<rect x="0.75" y="0.75" width="46.5" height="46.5" fill="#FFFF00"/>
<rect x="0.75" y="0.75" width="46.5" height="46.5" stroke="#FFFF00" stroke-width="1.5"/>
<path d="M10.9551 17.0872L10.9576 15.234C10.9574 14.8545 10.9306 14.3988 10.9947 14.0343C11.0583 13.6729 11.4631 13.3542 11.823 13.3412C12.0499 13.3329 12.2748 13.3334 12.501 13.3336L13.6931 13.3337L17.5881 13.3341L29.175 13.3338C29.4905 13.3368 29.7594 13.3897 29.9873 13.6296C30.1073 13.7543 30.1887 13.911 30.222 14.0808C30.2697 14.3339 30.2498 15.1448 30.2497 15.4531L30.2505 18.3163C31.2747 18.3291 32.3036 18.3135 33.3283 18.319C33.9933 18.3226 34.0767 18.3154 34.5473 18.7977L38.0452 22.4143L39.2014 23.6069C39.4091 23.8214 39.6366 24.0461 39.8272 24.2734C39.8955 24.355 39.9536 24.5469 40 24.6456V31.5026C39.8905 31.7233 39.8856 31.8464 39.6736 32.0383C39.5608 32.1408 39.4237 32.2128 39.2755 32.2478C39.0153 32.3119 38.5848 32.2789 38.3047 32.2861C38.1138 32.2909 37.8489 32.3004 37.6669 32.2898C37.5911 32.4551 37.5331 32.6344 37.452 32.8056C37.0055 33.7404 36.205 34.4589 35.2275 34.8023C34.2572 35.1423 33.1909 35.0786 32.268 34.6254C31.2575 34.1401 30.6216 33.3289 30.257 32.2867L24.0675 32.2861L22.1853 32.2862C21.9628 32.2865 21.5033 32.3047 21.3105 32.2844C20.9523 33.1797 20.5735 33.8229 19.731 34.3736C18.8631 34.9531 17.7964 35.1534 16.7774 34.9283C15.7012 34.69 14.7755 34.0084 14.2283 33.0515C14.1465 32.9104 14.1013 32.8112 14.0405 32.6625C13.9972 32.5565 13.9423 32.3892 13.8836 32.2981C13.8066 32.2661 13.6399 32.2761 13.5498 32.2764L12.6336 32.2767C12.1513 32.2778 11.5809 32.3456 11.221 31.9753C11.0601 31.8098 10.9875 31.6381 10.9703 31.4101C10.9481 31.1158 10.958 30.7912 10.958 30.4944L10.958 28.739L10.9589 22.7252C10.3076 22.7582 9.59119 22.7081 8.93594 22.7226C8.626 22.7295 8.23197 22.4932 8.11157 22.2118C8.0833 22.1457 8.04785 22.0574 8.01336 21.9943L8 21.9704V21.5828L8.00702 21.5703C8.17174 21.2708 8.23468 20.9929 8.66195 20.8845C9.02025 20.7935 9.60156 20.8404 9.98627 20.833C10.257 20.8278 10.6935 20.8231 10.9551 20.8371L10.9585 18.9762C10.4765 18.9812 9.95991 19.0494 9.59117 18.6917C9.41527 18.521 9.31593 18.2865 9.31579 18.0414C9.31304 17.783 9.41516 17.5344 9.59881 17.3526C9.94214 17.0128 10.4379 17.0792 10.8938 17.0852C10.9143 17.0853 10.9347 17.0859 10.9551 17.0872ZM12.832 17.0754C13.3672 17.0916 13.9254 17.0844 14.4628 17.0843L16.9113 17.0848L17.868 17.0827C18.0851 17.0822 18.3667 17.071 18.5728 17.109C18.7712 17.1449 18.9525 17.2444 19.0892 17.3925C19.2652 17.581 19.3444 17.8097 19.3327 18.0667C19.3222 18.3181 19.2107 18.5546 19.0234 18.7227C18.8585 18.8709 18.6819 18.9442 18.463 18.9619C18.1703 18.9856 17.8408 18.9764 17.5462 18.9763L15.8036 18.9761L13.7735 18.9761C13.5785 18.9762 13.0667 18.9947 12.9001 18.9829C12.8787 18.9814 12.8573 18.9794 12.836 18.9769C12.823 19.5857 12.8314 20.2152 12.832 20.8254C13.9903 20.8605 15.2682 20.8337 16.4357 20.8343L17.2275 20.8329C17.4433 20.8323 17.6941 20.8219 17.9032 20.863C18.0948 20.9015 18.2692 20.9996 18.4016 21.1434C18.5758 21.3304 18.6565 21.5618 18.6458 21.8167C18.6352 22.0658 18.5255 22.3004 18.3412 22.4683C18.0855 22.7008 17.8304 22.7242 17.4977 22.7258C17.284 22.7268 17.0689 22.7262 16.8551 22.7262L15.1398 22.726L13.5597 22.7262C13.3874 22.7264 13.0458 22.7432 12.9001 22.7329C12.8787 22.7314 12.8573 22.7294 12.836 22.727C12.8238 23.323 12.8314 23.9395 12.8314 24.5367L12.832 28.3504C12.8322 29.0167 12.8419 29.7101 12.8301 30.3748C13.159 30.3878 13.4744 30.3842 13.8017 30.3892C13.9905 29.4162 14.5876 28.4965 15.411 27.9422C15.6883 27.7519 15.9902 27.6001 16.3085 27.4914C17.2883 27.142 18.3678 27.2034 19.3017 27.6617C20.2282 28.1151 20.9354 28.9198 21.2663 29.8969C21.3187 30.055 21.362 30.2161 21.3961 30.3792C21.8721 30.4162 22.6454 30.3934 23.137 30.3931L26.5833 30.3926C27.1072 30.3926 27.842 30.3704 28.3423 30.3961L28.3736 15.2281C27.2319 15.2422 26.0477 15.226 24.903 15.2259L17.6346 15.2257L14.2423 15.2258L13.3875 15.2276C13.236 15.2294 12.9718 15.2437 12.8362 15.2248C12.8225 15.8333 12.8314 16.4653 12.832 17.0754ZM30.2153 30.1097C30.3084 29.8578 30.3906 29.62 30.512 29.3801C30.8973 28.6144 31.5283 27.9998 32.3039 27.6345C33.2458 27.1934 34.3253 27.1483 35.3008 27.5092C36.0114 27.7701 36.5486 28.1873 37.0198 28.7709C37.4327 29.3134 37.5975 29.7404 37.7623 30.3859L38.1219 30.3937C38.1441 28.8551 38.1138 27.3001 38.1267 25.7598L32.6462 25.7534L30.9789 25.7542C30.8173 25.7545 30.3494 25.7694 30.2216 25.7523L30.2211 28.549C30.2211 29.0576 30.2308 29.6036 30.2153 30.1097ZM17.4785 29.1523C16.3784 29.2192 15.5415 30.1661 15.61 31.2661C15.6786 32.3661 16.6267 33.2015 17.7266 33.1314C18.8241 33.0614 19.6576 32.1156 19.5891 31.0179C19.5207 29.9203 18.5763 29.0854 17.4785 29.1523ZM33.8441 29.152C32.7423 29.2153 31.9016 30.1615 31.9684 31.2631C32.0355 32.3647 32.9847 33.2023 34.0859 33.1315C35.182 33.0611 36.0147 32.1175 35.948 31.0212C35.8814 29.925 34.9406 29.0892 33.8441 29.152ZM33.3027 20.2174C33.025 20.1961 32.6811 20.2044 32.3983 20.2045L30.9753 20.206C30.7964 20.2063 30.3814 20.22 30.2241 20.2037C30.2116 21.3122 30.2269 22.4224 30.2214 23.531C30.2208 23.6436 30.2214 23.7535 30.2166 23.8662C31.0161 23.8936 31.9014 23.8747 32.7077 23.8747L36.8289 23.8744C36.8105 23.814 36.2644 23.2717 36.1631 23.1679L35.0422 22.0092L33.8781 20.8087C33.6998 20.6253 33.4858 20.3902 33.3027 20.2174Z" fill="black"/>
</svg>
