<svg width="24" height="24" viewBox="0 0 24 24" fill="none" xmlns="http://www.w3.org/2000/svg">
<path d="M4.39568 0.754746C4.45383 0.752089 4.51202 0.750433 4.57023 0.749779L5.48013 0.749218C6.09966 0.74806 6.57254 0.708395 7.05751 1.18972C7.54072 1.66931 7.50173 2.15328 7.50137 2.77087L7.50034 3.74766L16.498 3.74897C16.5005 3.41283 16.501 3.07668 16.4995 2.74053C16.4995 2.12856 16.4659 1.67935 16.9327 1.1938C17.2519 0.861846 17.6388 0.751627 18.0901 0.749366L18.9896 0.749492C19.6149 0.748245 20.0697 0.709739 20.5614 1.19374C20.8871 1.51437 21 1.89753 21.0012 2.34612L21.0005 6.0107L21.0011 7.01631C21.0012 7.25922 21.0125 7.56934 20.9669 7.8003C20.9078 8.089 20.7649 8.35383 20.5558 8.56152C20.09 9.02499 19.6498 9.00359 19.0549 9.00415L18.1733 9.00449C17.6834 9.00203 17.2883 8.91889 16.9286 8.55189C16.7407 8.35874 16.6072 8.1192 16.5419 7.85767C16.5105 7.72801 16.5 7.56589 16.5004 7.43263C16.503 6.70807 16.4937 5.98211 16.5026 5.25769C15.6344 5.24584 14.7492 5.25389 13.8798 5.25375L13.2079 5.25532C13.0735 5.25632 12.8798 5.26433 12.751 5.2486L12.7504 8.38201C13.342 8.6453 13.779 8.9726 14.0526 9.58407C14.1447 9.78993 14.205 10.0086 14.2313 10.2325C14.2559 10.4355 14.2511 10.6392 14.251 10.8434L14.2511 11.5845L14.251 12.3719C14.251 12.5689 14.2559 12.7666 14.2367 12.9624C14.2189 13.1604 14.1738 13.3551 14.1028 13.5408C13.8465 14.2088 13.389 14.5855 12.755 14.8682C12.7448 15.0695 12.7503 15.3028 12.7503 15.5078L12.751 16.5966C13.0014 16.7001 13.1412 16.716 13.4032 16.8623C14.1922 17.303 14.6354 17.8927 14.8932 18.7409C15.0446 18.7574 15.3205 18.7501 15.4826 18.7501L16.498 18.749L16.5005 17.3062C16.5004 16.953 16.4707 16.369 16.5687 16.0513C16.6871 15.6706 16.9522 15.3524 17.3055 15.1674C17.4577 15.0892 17.6221 15.0375 17.7916 15.0148C18.0401 14.9808 18.449 14.9977 18.7108 14.9994C19.0889 15.002 19.6196 14.9612 19.9689 15.0764C20.35 15.2025 20.6649 15.4756 20.8436 15.8349C21.0525 16.2529 21.0012 16.7999 21.001 17.2615L21.0007 18.8035L21.0005 20.7633C21.0007 21.1689 21.0428 21.8645 20.9206 22.2253C20.7894 22.6099 20.5095 22.9261 20.1437 23.1031C20.0129 23.1675 19.873 23.2117 19.7288 23.234C19.6398 23.2472 19.5385 23.2535 19.4482 23.2525C18.9118 23.2469 18.3709 23.2723 17.8357 23.2402C17.7111 23.2327 17.5619 23.1859 17.4451 23.1458C17.2668 23.072 17.0627 22.9404 16.9297 22.8017C16.4476 22.2989 16.4998 21.836 16.4996 21.2074C16.4985 20.8908 16.4996 20.5743 16.5026 20.2576C15.9776 20.25 15.4076 20.2697 14.893 20.2545C14.8301 20.4625 14.7684 20.6404 14.6702 20.8368C14.3121 21.5521 13.6858 22.0968 12.9278 22.3521C12.1807 22.5983 11.3662 22.5369 10.6644 22.1815C10.0568 21.8748 9.57095 21.3714 9.28615 20.7531C9.20392 20.5733 9.16689 20.4412 9.10648 20.2579C8.76481 20.2528 8.4231 20.2518 8.0814 20.2546C7.92622 20.2555 7.64658 20.2663 7.50096 20.2486L7.50129 21.1744C7.50169 21.4717 7.51992 21.8568 7.44698 22.1343C7.38102 22.381 7.25334 22.6069 7.07597 22.7905C6.76009 23.116 6.3772 23.2547 5.93052 23.2528C5.46689 23.2508 5.00363 23.2575 4.53931 23.2526C4.12148 23.2483 3.75149 23.1148 3.44917 22.8207C3.12627 22.5026 3.00441 22.1385 3.00031 21.6945L3.00026 18.0293L3.00008 16.9902C3 16.7532 2.98882 16.4185 3.03307 16.1936C3.09054 15.9086 3.23064 15.6469 3.4359 15.4411C3.75248 15.1205 4.12175 15.0014 4.564 14.999L5.47606 14.9997C6.09945 14.9984 6.57347 14.9556 7.0603 15.4418C7.24773 15.6278 7.38193 15.8607 7.449 16.116C7.52373 16.4052 7.50074 16.9479 7.50076 17.2707L7.50034 18.7477L9.10027 18.7506C9.14789 18.5706 9.25254 18.3085 9.33383 18.1486C9.629 17.562 10.1102 17.0896 10.7023 16.8054C10.889 16.7169 11.0532 16.6637 11.248 16.6006C11.2581 16.0532 11.2578 15.4163 11.2476 14.8696C10.6283 14.5847 10.1799 14.2494 9.91224 13.5886C9.83593 13.3992 9.78639 13.2003 9.76502 12.9973C9.73165 12.681 9.75063 12.0147 9.75039 11.6727L9.7497 10.8707C9.74963 10.6484 9.74452 10.4265 9.77156 10.2055C9.79575 10.0078 9.84782 9.81454 9.92618 9.63141C10.1905 9.00865 10.6331 8.63404 11.2476 8.38648C11.2579 8.08064 11.2481 7.74901 11.2502 7.44147C11.2552 6.71476 11.2429 5.98426 11.2527 5.25769C10.3811 5.24577 9.49239 5.2539 8.61969 5.25375L7.95708 5.25531C7.82269 5.25631 7.62979 5.2643 7.50096 5.24861L7.5008 6.7533C7.50116 7.04907 7.51986 7.56205 7.4603 7.83345C7.41156 8.0479 7.31568 8.24881 7.17962 8.42159C6.93252 8.73768 6.57014 8.94289 6.17196 8.99219C6.03605 9.00777 5.58586 9.00771 5.43476 9.00408C5.08219 8.99561 4.48944 9.03523 4.16684 8.96222C3.94458 8.91129 3.73664 8.81097 3.55845 8.66869C3.25282 8.42397 3.05648 8.0682 3.01236 7.67915C2.98495 7.41647 2.9999 6.8908 3.00007 6.61477L3.00036 4.64219L3 2.95151C3 2.71027 2.98743 2.23176 3.02172 2.00959C3.06223 1.74705 3.17282 1.50028 3.34181 1.29532C3.62277 0.95612 3.96291 0.797649 4.39568 0.754746ZM18.0003 21.7477C18.1244 21.7483 19.4649 21.7624 19.4953 21.7344C19.5043 21.261 19.499 20.7724 19.4991 20.298L19.4998 17.7735C19.5 17.3575 19.4936 16.9225 19.5026 16.5076C19.1718 16.5038 18.8409 16.5028 18.5101 16.5049C18.3882 16.5053 18.1093 16.5149 18.0026 16.4978C17.9745 18.2367 18.0185 20.0053 18.0003 21.7477ZM4.50034 21.7477C4.6245 21.7483 5.96476 21.7626 5.99529 21.7344C6.00432 21.2582 5.99899 20.7665 5.99918 20.2891L5.99984 17.7678C5.99993 17.3537 5.99363 16.9206 6.00264 16.5076C5.67614 16.5037 5.34962 16.5028 5.02313 16.5049C4.90061 16.5053 4.60943 16.5149 4.50264 16.4978C4.47449 18.2367 4.51852 20.0053 4.50034 21.7477ZM11.8422 18.0113C11.0217 18.0975 10.4256 18.8314 10.5094 19.6521C10.5933 20.4729 11.3255 21.071 12.1466 20.9895C12.9707 20.9076 13.5718 20.1719 13.4876 19.3478C13.4034 18.5237 12.6659 17.9248 11.8422 18.0113ZM18.0026 2.24783C17.9745 3.98671 18.0186 5.75536 18.0003 7.49768C18.1257 7.49824 19.4648 7.51248 19.4953 7.48445C19.5044 7.01189 19.4989 6.52337 19.4991 6.04975L19.4998 3.53234C19.5 3.11433 19.4932 2.67433 19.5026 2.25768C19.1714 2.25367 18.8401 2.25278 18.5088 2.25498C18.3869 2.25533 18.1093 2.2649 18.0026 2.24783ZM12.1023 13.4902C12.4594 13.4151 12.712 13.1745 12.7403 12.8059C12.7519 12.6544 12.7505 12.5108 12.7507 12.3596V11.6943L12.7508 10.9456C12.7507 10.5263 12.8021 10.11 12.3862 9.86096C12.2451 9.77652 12.0658 9.73899 11.9023 9.76534C11.5684 9.80691 11.3094 10.047 11.2656 10.3839C11.2436 10.5533 11.2502 10.7244 11.2503 10.895L11.25 11.6188L11.2501 12.3722C11.2504 12.7566 11.2083 13.0936 11.5524 13.3473C11.7229 13.4731 11.8941 13.51 12.1023 13.4902ZM4.50263 2.24783C4.47449 3.98672 4.51852 5.75535 4.50034 7.49768C4.62567 7.49824 5.96482 7.51248 5.99528 7.48445C6.00437 7.01325 5.99895 6.52633 5.99915 6.05408L5.99983 3.53529C5.99993 3.11631 5.99311 2.67522 6.00266 2.25761C5.67566 2.25371 5.34864 2.25281 5.02164 2.25496C4.89907 2.25532 4.60949 2.26492 4.50263 2.24783Z" fill="#2E2E2E"/>
<path d="M4.39568 0.754746C4.45383 0.752089 4.51202 0.750433 4.57023 0.749779L5.48013 0.749218C6.09966 0.74806 6.57254 0.708395 7.05751 1.18972C7.54072 1.66931 7.50173 2.15328 7.50137 2.77087L7.50034 3.74766L16.498 3.74897C16.5005 3.41283 16.501 3.07668 16.4995 2.74053C16.4995 2.12856 16.4659 1.67935 16.9327 1.1938C17.2519 0.861846 17.6388 0.751627 18.0901 0.749366L18.9896 0.749492C19.6149 0.748245 20.0697 0.709739 20.5614 1.19374C20.8871 1.51437 21 1.89753 21.0012 2.34612L21.0005 6.0107L21.0011 7.01631C21.0012 7.25922 21.0125 7.56934 20.9669 7.8003C20.9078 8.089 20.7649 8.35383 20.5558 8.56152C20.09 9.02499 19.6498 9.00359 19.0549 9.00415L18.1733 9.00449C17.6834 9.00203 17.2883 8.91889 16.9286 8.55189C16.7407 8.35874 16.6072 8.1192 16.5419 7.85767C16.5105 7.72801 16.5 7.56589 16.5004 7.43263C16.503 6.70807 16.4937 5.98211 16.5026 5.25769C15.6344 5.24584 14.7492 5.25389 13.8798 5.25375L13.2079 5.25532C13.0735 5.25632 12.8798 5.26433 12.751 5.2486L12.7504 8.38201C13.342 8.6453 13.779 8.9726 14.0526 9.58407C14.1447 9.78993 14.205 10.0086 14.2313 10.2325C14.2559 10.4355 14.2511 10.6392 14.251 10.8434L14.2511 11.5845L14.251 12.3719C14.251 12.5689 14.2559 12.7666 14.2367 12.9624C14.2189 13.1604 14.1738 13.3551 14.1028 13.5408C13.8465 14.2088 13.389 14.5855 12.755 14.8682C12.7448 15.0695 12.7503 15.3028 12.7503 15.5078L12.751 16.5966C13.0014 16.7001 13.1412 16.716 13.4032 16.8623C14.1922 17.303 14.6354 17.8927 14.8932 18.7409C15.0446 18.7574 15.3205 18.7501 15.4826 18.7501L16.498 18.749L16.5005 17.3062C16.5004 16.953 16.4707 16.369 16.5687 16.0513C16.6871 15.6706 16.9522 15.3524 17.3055 15.1674C17.4577 15.0892 17.6221 15.0375 17.7916 15.0148C18.0401 14.9808 18.449 14.9977 18.7108 14.9994C19.0889 15.002 19.6196 14.9612 19.9689 15.0764C20.35 15.2025 20.6649 15.4756 20.8436 15.8349C21.0525 16.2529 21.0012 16.7999 21.001 17.2615L21.0007 18.8035L21.0005 20.7633C21.0007 21.1689 21.0428 21.8645 20.9206 22.2253C20.7894 22.6099 20.5095 22.9261 20.1437 23.1031C20.0129 23.1675 19.873 23.2117 19.7288 23.234C19.6398 23.2472 19.5385 23.2535 19.4482 23.2525C18.9118 23.2469 18.3709 23.2723 17.8357 23.2402C17.7111 23.2327 17.5619 23.1859 17.4451 23.1458C17.2668 23.072 17.0627 22.9404 16.9297 22.8017C16.4476 22.2989 16.4998 21.836 16.4996 21.2074C16.4985 20.8908 16.4996 20.5743 16.5026 20.2576C15.9776 20.25 15.4076 20.2697 14.893 20.2545C14.8301 20.4625 14.7684 20.6404 14.6702 20.8368C14.3121 21.5521 13.6858 22.0968 12.9278 22.3521C12.1807 22.5983 11.3662 22.5369 10.6644 22.1815C10.0568 21.8748 9.57095 21.3714 9.28615 20.7531C9.20392 20.5733 9.16689 20.4412 9.10648 20.2579C8.76481 20.2528 8.4231 20.2518 8.0814 20.2546C7.92622 20.2555 7.64658 20.2663 7.50096 20.2486L7.50129 21.1744C7.50169 21.4717 7.51992 21.8568 7.44698 22.1343C7.38102 22.381 7.25334 22.6069 7.07597 22.7905C6.76009 23.116 6.3772 23.2547 5.93052 23.2528C5.46689 23.2508 5.00363 23.2575 4.53931 23.2526C4.12148 23.2483 3.75149 23.1148 3.44917 22.8207C3.12627 22.5026 3.00441 22.1385 3.00031 21.6945L3.00026 18.0293L3.00008 16.9902C3 16.7532 2.98882 16.4185 3.03307 16.1936C3.09054 15.9086 3.23064 15.6469 3.4359 15.4411C3.75248 15.1205 4.12175 15.0014 4.564 14.999L5.47606 14.9997C6.09945 14.9984 6.57347 14.9556 7.0603 15.4418C7.24773 15.6278 7.38193 15.8607 7.449 16.116C7.52373 16.4052 7.50074 16.9479 7.50076 17.2707L7.50034 18.7477L9.10027 18.7506C9.14789 18.5706 9.25254 18.3085 9.33383 18.1486C9.629 17.562 10.1102 17.0896 10.7023 16.8054C10.889 16.7169 11.0532 16.6637 11.248 16.6006C11.2581 16.0532 11.2578 15.4163 11.2476 14.8696C10.6283 14.5847 10.1799 14.2494 9.91224 13.5886C9.83593 13.3992 9.78639 13.2003 9.76502 12.9973C9.73165 12.681 9.75063 12.0147 9.75039 11.6727L9.7497 10.8707C9.74963 10.6484 9.74452 10.4265 9.77156 10.2055C9.79575 10.0078 9.84782 9.81454 9.92618 9.63141C10.1905 9.00865 10.6331 8.63404 11.2476 8.38648C11.2579 8.08064 11.2481 7.74901 11.2502 7.44147C11.2552 6.71476 11.2429 5.98426 11.2527 5.25769C10.3811 5.24577 9.49239 5.2539 8.61969 5.25375L7.95708 5.25531C7.82269 5.25631 7.62979 5.2643 7.50096 5.24861L7.5008 6.7533C7.50116 7.04907 7.51986 7.56205 7.4603 7.83345C7.41156 8.0479 7.31568 8.24881 7.17962 8.42159C6.93252 8.73768 6.57014 8.94289 6.17196 8.99219C6.03605 9.00777 5.58586 9.00771 5.43476 9.00408C5.08219 8.99561 4.48944 9.03523 4.16684 8.96222C3.94458 8.91129 3.73664 8.81097 3.55845 8.66869C3.25282 8.42397 3.05648 8.0682 3.01236 7.67915C2.98495 7.41647 2.9999 6.8908 3.00007 6.61477L3.00036 4.64219L3 2.95151C3 2.71027 2.98743 2.23176 3.02172 2.00959C3.06223 1.74705 3.17282 1.50028 3.34181 1.29532C3.62277 0.95612 3.96291 0.797649 4.39568 0.754746ZM18.0003 21.7477C18.1244 21.7483 19.4649 21.7624 19.4953 21.7344C19.5043 21.261 19.499 20.7724 19.4991 20.298L19.4998 17.7735C19.5 17.3575 19.4936 16.9225 19.5026 16.5076C19.1718 16.5038 18.8409 16.5028 18.5101 16.5049C18.3882 16.5053 18.1093 16.5149 18.0026 16.4978C17.9745 18.2367 18.0185 20.0053 18.0003 21.7477ZM4.50034 21.7477C4.6245 21.7483 5.96476 21.7626 5.99529 21.7344C6.00432 21.2582 5.99899 20.7665 5.99918 20.2891L5.99984 17.7678C5.99993 17.3537 5.99363 16.9206 6.00264 16.5076C5.67614 16.5037 5.34962 16.5028 5.02313 16.5049C4.90061 16.5053 4.60943 16.5149 4.50264 16.4978C4.47449 18.2367 4.51852 20.0053 4.50034 21.7477ZM11.8422 18.0113C11.0217 18.0975 10.4256 18.8314 10.5094 19.6521C10.5933 20.4729 11.3255 21.071 12.1466 20.9895C12.9707 20.9076 13.5718 20.1719 13.4876 19.3478C13.4034 18.5237 12.6659 17.9248 11.8422 18.0113ZM18.0026 2.24783C17.9745 3.98671 18.0186 5.75536 18.0003 7.49768C18.1257 7.49824 19.4648 7.51248 19.4953 7.48445C19.5044 7.01189 19.4989 6.52337 19.4991 6.04975L19.4998 3.53234C19.5 3.11433 19.4932 2.67433 19.5026 2.25768C19.1714 2.25367 18.8401 2.25278 18.5088 2.25498C18.3869 2.25533 18.1093 2.2649 18.0026 2.24783ZM12.1023 13.4902C12.4594 13.4151 12.712 13.1745 12.7403 12.8059C12.7519 12.6544 12.7505 12.5108 12.7507 12.3596V11.6943L12.7508 10.9456C12.7507 10.5263 12.8021 10.11 12.3862 9.86096C12.2451 9.77652 12.0658 9.73899 11.9023 9.76534C11.5684 9.80691 11.3094 10.047 11.2656 10.3839C11.2436 10.5533 11.2502 10.7244 11.2503 10.895L11.25 11.6188L11.2501 12.3722C11.2504 12.7566 11.2083 13.0936 11.5524 13.3473C11.7229 13.4731 11.8941 13.51 12.1023 13.4902ZM4.50263 2.24783C4.47449 3.98672 4.51852 5.75535 4.50034 7.49768C4.62567 7.49824 5.96482 7.51248 5.99528 7.48445C6.00437 7.01325 5.99895 6.52633 5.99915 6.05408L5.99983 3.53529C5.99993 3.11631 5.99311 2.67522 6.00266 2.25761C5.67566 2.25371 5.34864 2.25281 5.02164 2.25496C4.89907 2.25532 4.60949 2.26492 4.50263 2.24783Z" fill="black" fill-opacity="0.2"/>
</svg>
